<svg width="27" height="23" viewBox="0 0 27 23" fill="none" xmlns="http://www.w3.org/2000/svg">
<path d="M11.4176 6.18815C9.75038 6.17895 7.65675 7.1024 6.05925 8.73425C5.45063 9.3564 4.91288 10.0832 4.5 10.8986C5.94113 9.7842 7.47787 9.4346 9.27787 10.4673C9.80775 9.03555 10.5143 7.5785 11.4176 6.18815ZM20.9542 15.9183C19.4771 16.905 18.0247 17.618 16.7659 18.1194C17.775 19.9594 17.4341 21.528 16.3429 23C17.1439 22.5779 17.8537 22.0294 18.4624 21.4061C20.0655 19.7696 20.97 17.6249 20.9542 15.9183ZM26.9494 0.0425499C26.5477 0.0137999 26.154 0 25.767 0C17.3846 0 12.6135 6.5297 10.8776 11.7817L15.4845 16.4899C20.7743 14.5521 27 9.8578 27 1.38345C27 0.94645 26.9831 0.50025 26.9494 0.0425499V0.0425499ZM17.3138 9.9084C16.9324 9.5197 16.9324 8.8895 17.3138 8.5008C17.694 8.1121 18.3105 8.1121 18.6908 8.5008C19.0721 8.8895 19.0721 9.5197 18.6908 9.9084C18.3094 10.2982 17.694 10.2982 17.3138 9.9084V9.9084ZM20.0689 7.0932C19.3073 6.3158 19.3073 5.0554 20.0689 4.27685C20.8305 3.4983 22.0635 3.49945 22.824 4.27685C23.5856 5.05425 23.5856 6.31465 22.824 7.0932C22.0635 7.8706 20.8305 7.8706 20.0689 7.0932ZM13.2188 17.1247C11.5661 19.1912 8.93025 20.6713 6.327 20.6713C2.727 20.6713 0 17.9641 0 14.5636C0 12.8558 0.687375 10.9733 2.29837 9.17125C-1.30275 15.0788 4.02188 20.4769 10.287 14.1277L11.1476 15.0075C10.1239 16.2276 9.07763 17.0775 7.605 17.8376C9.117 17.9032 11.0351 17.1844 12.3244 16.2092L13.2188 17.1247V17.1247Z" fill="#6AB9F0"/>
</svg>
