<svg width="44" height="42" viewBox="0 0 44 42" fill="none" xmlns="http://www.w3.org/2000/svg">
<path d="M36.5 19.5781C37.3284 19.5781 38 19.001 38 18.2891C38 17.5771 37.3284 17 36.5 17C35.6716 17 35 17.5771 35 18.2891C35 19.001 35.6716 19.5781 36.5 19.5781Z" fill="#6AB9F0"/>
<path d="M30.4999 19.5781C31.3284 19.5781 31.9999 19.001 31.9999 18.2891C31.9999 17.5771 31.3284 17 30.4999 17C29.6715 17 28.9999 17.5771 28.9999 18.2891C28.9999 19.001 29.6715 19.5781 30.4999 19.5781Z" fill="#6AB9F0"/>
<path d="M24.5 19.5781C25.3284 19.5781 26 19.001 26 18.2891C26 17.5771 25.3284 17 24.5 17C23.6716 17 23 17.5771 23 18.2891C23 19.001 23.6716 19.5781 24.5 19.5781Z" fill="#6AB9F0"/>
<path d="M20.5 8.57812C21.3284 8.57812 22 8.00099 22 7.28906C22 6.57713 21.3284 6 20.5 6C19.6716 6 19 6.57713 19 7.28906C19 8.00099 19.6716 8.57812 20.5 8.57812Z" fill="#6AB9F0"/>
<path d="M14.5 8.57812C15.3284 8.57812 16 8.00099 16 7.28906C16 6.57713 15.3284 6 14.5 6C13.6716 6 13 6.57713 13 7.28906C13 8.00099 13.6716 8.57812 14.5 8.57812Z" fill="#6AB9F0"/>
<path d="M8.5 8.57812C9.32842 8.57812 10 8.00099 10 7.28906C10 6.57713 9.32842 6 8.5 6C7.67157 6 7 6.57713 7 7.28906C7 8.00099 7.67157 8.57812 8.5 8.57812Z" fill="#6AB9F0"/>
<path d="M40.1327 10.3125H28.4453V3.86718C28.4453 1.73482 26.7104 0 24.5781 0H3.86718C1.73482 0 0 1.73482 0 3.86718V11.6015C0 13.7339 1.73482 15.4687 3.86718 15.4687H5.24218V19.3359C5.24218 19.8573 5.55619 20.3274 6.03796 20.5268C6.19711 20.5927 6.36435 20.6248 6.53012 20.625H3.86718C1.73482 20.625 0 22.3598 0 24.4921V32.2265C0 34.3589 1.73482 36.0937 3.86718 36.0937H5.24218V39.9609C5.24218 40.4822 5.55619 40.9523 6.03796 41.1518C6.51964 41.3513 7.0741 41.241 7.44278 40.8723L12.2214 36.0937H24.5781C26.7104 36.0937 28.4453 34.3589 28.4453 32.2265V25.7812H32.5681L36.4784 30.4736C36.8259 30.8906 37.3974 31.0453 37.9076 30.8604C38.4179 30.6757 38.7578 30.1911 38.7578 29.6484V25.7812H40.1328C42.2652 25.7812 44 24.0464 44 21.914V14.1797C43.9999 12.0473 42.2651 10.3125 40.1327 10.3125ZM3.86718 12.8906C3.15639 12.8906 2.57812 12.3123 2.57812 11.6015V3.86718C2.57812 3.15639 3.15639 2.57812 3.86718 2.57812H24.5781C25.2889 2.57812 25.8671 3.15639 25.8671 3.86718V10.3125H19.4218C17.7413 10.3125 16.3085 11.3903 15.7764 12.8906H11.6875C11.3455 12.8906 11.0177 13.0265 10.776 13.2682L7.8203 16.2238V14.1797C7.8203 13.4678 7.24314 12.8906 6.53124 12.8906H3.86718ZM15.5547 15.4687V20.625H6.53184C6.86699 20.6247 7.19639 20.4937 7.44269 20.2474L12.2214 15.4687H15.5547ZM25.8671 32.2265C25.8671 32.9373 25.2889 33.5156 24.5781 33.5156H11.6875C11.3455 33.5156 11.0177 33.6514 10.776 33.8932L7.8203 36.8487V34.8046C7.8203 34.0927 7.24314 33.5156 6.53124 33.5156H3.86718C3.15639 33.5156 2.57812 32.9373 2.57812 32.2265V24.4921C2.57812 23.7814 3.15639 23.2031 3.86718 23.2031H24.5781C25.2889 23.2031 25.8671 23.7814 25.8671 24.4921V32.2265ZM41.4218 21.914C41.4218 22.6248 40.8435 23.2031 40.1327 23.2031H37.4687C36.7568 23.2031 36.1796 23.7802 36.1796 24.4921V26.0879L34.1621 23.6669C33.9171 23.373 33.5544 23.2031 33.1718 23.2031H28.2235C27.6914 21.7028 26.2586 20.625 24.5781 20.625H18.1328V14.1797C18.1328 13.4689 18.7111 12.8906 19.4218 12.8906H40.1327C40.8435 12.8906 41.4218 13.4689 41.4218 14.1797V21.914Z" fill="#6AB9F0"/>
<path d="M20.5 29.5781C21.3284 29.5781 22 29.001 22 28.2891C22 27.5771 21.3284 27 20.5 27C19.6716 27 19 27.5771 19 28.2891C19 29.001 19.6716 29.5781 20.5 29.5781Z" fill="#6AB9F0"/>
<path d="M14.5 29.5781C15.3284 29.5781 16 29.001 16 28.2891C16 27.5771 15.3284 27 14.5 27C13.6716 27 13 27.5771 13 28.2891C13 29.001 13.6716 29.5781 14.5 29.5781Z" fill="#6AB9F0"/>
<path d="M8.5 29.5781C9.32842 29.5781 10 29.001 10 28.2891C10 27.5771 9.32842 27 8.5 27C7.67157 27 7 27.5771 7 28.2891C7 29.001 7.67157 29.5781 8.5 29.5781Z" fill="#6AB9F0"/>
</svg>
