<svg width="512" height="512" viewBox="0 0 512 512" fill="none" xmlns="http://www.w3.org/2000/svg">
<path d="M512 250.342C512 212.992 486.571 182.63 455.317 182.63C440.064 182.63 426.24 189.952 416.064 201.728C377.451 171.238 325.205 151.834 267.349 149.35L298.987 29.824L384.661 53.9136L384.533 55.3984C384.533 85.9392 405.333 110.771 430.912 110.771C456.469 110.771 477.248 85.9392 477.248 55.3984C477.248 24.8576 456.448 0 430.912 0C411.285 0 394.56 14.6944 387.797 35.3024L295.445 9.3184C291.413 8.1408 287.317 10.9312 286.059 15.6928L250.773 148.992C190.229 149.862 135.381 169.421 95.04 200.832C84.928 189.619 71.5093 182.605 56.6613 182.605C25.408 182.605 0 212.992 0 250.342C0 275.174 11.3707 296.704 28.096 308.48C26.9867 315.699 26.2613 322.995 26.2613 330.419C26.2613 430.541 128.832 512 254.933 512C381.035 512 483.627 430.541 483.627 330.419C483.627 323.405 483.008 316.493 482.027 309.683C499.776 298.24 512 276.096 512 250.342ZM144.555 296.832C144.555 274.611 159.701 256.512 178.304 256.512C196.907 256.512 212.032 274.611 212.032 296.832C212.032 319.053 196.907 337.126 178.304 337.126C159.701 337.126 144.555 319.053 144.555 296.832ZM337.856 416.358C320.853 436.659 294.165 446.541 256.277 446.541L256 446.464L255.723 446.541C217.813 446.541 191.125 436.659 174.144 416.358C171.051 412.672 171.051 406.656 174.144 402.97C177.237 399.258 182.272 399.258 185.365 402.97C199.232 419.533 222.251 427.571 255.723 427.571L256 427.648L256.277 427.571C289.749 427.571 312.768 419.507 326.635 402.944C329.728 399.232 334.763 399.258 337.856 402.944C340.949 406.656 340.949 412.646 337.856 416.358ZM333.824 337.126C315.221 337.126 300.096 319.053 300.096 296.832C300.096 274.611 315.221 256.512 333.824 256.512C352.427 256.512 367.552 274.611 367.552 296.832C367.552 319.053 352.427 337.126 333.824 337.126Z" fill="#6AB9F0"/>
</svg>
