<svg width="192" height="192" viewBox="0 0 192 192" fill="none" xmlns="http://www.w3.org/2000/svg">
<path d="M192 93.8784C192 79.872 182.464 68.4864 170.744 68.4864C165.024 68.4864 159.84 71.232 156.024 75.648C141.544 64.2144 121.952 56.9376 100.256 56.0064L112.12 11.184L144.248 20.2176L144.2 20.7744C144.2 32.2272 152 41.5392 161.592 41.5392C171.176 41.5392 178.968 32.2272 178.968 20.7744C178.968 9.3216 171.168 0 161.592 0C154.232 0 147.96 5.5104 145.424 13.2384L110.792 3.4944C109.28 3.0528 107.744 4.0992 107.272 5.8848L94.04 55.872C71.336 56.1984 50.768 63.5328 35.64 75.312C31.848 71.1072 26.816 68.4768 21.248 68.4768C9.528 68.4768 0 79.872 0 93.8784C0 103.19 4.264 111.264 10.536 115.68C10.12 118.387 9.848 121.123 9.848 123.907C9.848 161.453 48.312 192 95.6 192C142.888 192 181.36 161.453 181.36 123.907C181.36 121.277 181.128 118.685 180.76 116.131C187.416 111.84 192 103.536 192 93.8784ZM54.208 111.312C54.208 102.979 59.888 96.192 66.864 96.192C73.84 96.192 79.512 102.979 79.512 111.312C79.512 119.645 73.84 126.422 66.864 126.422C59.888 126.422 54.208 119.645 54.208 111.312ZM126.696 156.134C120.32 163.747 110.312 167.453 96.104 167.453L96 167.424L95.896 167.453C81.68 167.453 71.672 163.747 65.304 156.134C64.144 154.752 64.144 152.496 65.304 151.114C66.464 149.722 68.352 149.722 69.512 151.114C74.712 157.325 83.344 160.339 95.896 160.339L96 160.368L96.104 160.339C108.656 160.339 117.288 157.315 122.488 151.104C123.648 149.712 125.536 149.722 126.696 151.104C127.856 152.496 127.856 154.742 126.696 156.134ZM125.184 126.422C118.208 126.422 112.536 119.645 112.536 111.312C112.536 102.979 118.208 96.192 125.184 96.192C132.16 96.192 137.832 102.979 137.832 111.312C137.832 119.645 132.16 126.422 125.184 126.422Z" fill="#6AB9F0"/>
</svg>
