<svg width="64" height="64" viewBox="0 0 64 64" fill="none" xmlns="http://www.w3.org/2000/svg">
<path d="M64 31.2928C64 26.624 60.8213 22.8288 56.9147 22.8288C55.008 22.8288 53.28 23.744 52.008 25.216C47.1813 21.4048 40.6507 18.9792 33.4187 18.6688L37.3733 3.728L48.0827 6.7392L48.0667 6.9248C48.0667 10.7424 50.6667 13.8464 53.864 13.8464C57.0587 13.8464 59.656 10.7424 59.656 6.9248C59.656 3.1072 57.056 0 53.864 0C51.4107 0 49.32 1.8368 48.4747 4.4128L36.9307 1.1648C36.4267 1.0176 35.9147 1.3664 35.7573 1.9616L31.3467 18.624C23.7787 18.7328 16.9227 21.1776 11.88 25.104C10.616 23.7024 8.93867 22.8256 7.08267 22.8256C3.176 22.8256 0 26.624 0 31.2928C0 34.3968 1.42133 37.088 3.512 38.56C3.37333 39.4624 3.28267 40.3744 3.28267 41.3024C3.28267 53.8176 16.104 64 31.8667 64C47.6293 64 60.4533 53.8176 60.4533 41.3024C60.4533 40.4256 60.376 39.5616 60.2533 38.7104C62.472 37.28 64 34.512 64 31.2928ZM18.0693 37.104C18.0693 34.3264 19.9627 32.064 22.288 32.064C24.6133 32.064 26.504 34.3264 26.504 37.104C26.504 39.8816 24.6133 42.1408 22.288 42.1408C19.9627 42.1408 18.0693 39.8816 18.0693 37.104ZM42.232 52.0448C40.1067 54.5824 36.7707 55.8176 32.0347 55.8176L32 55.808L31.9653 55.8176C27.2267 55.8176 23.8907 54.5824 21.768 52.0448C21.3813 51.584 21.3813 50.832 21.768 50.3712C22.1547 49.9072 22.784 49.9072 23.1707 50.3712C24.904 52.4416 27.7813 53.4464 31.9653 53.4464L32 53.456L32.0347 53.4464C36.2187 53.4464 39.096 52.4384 40.8293 50.368C41.216 49.904 41.8453 49.9072 42.232 50.368C42.6187 50.832 42.6187 51.5808 42.232 52.0448ZM41.728 42.1408C39.4027 42.1408 37.512 39.8816 37.512 37.104C37.512 34.3264 39.4027 32.064 41.728 32.064C44.0533 32.064 45.944 34.3264 45.944 37.104C45.944 39.8816 44.0533 42.1408 41.728 42.1408Z" fill="#6AB9F0"/>
</svg>
