<svg width="65" height="62" viewBox="0 0 65 62" fill="none" xmlns="http://www.w3.org/2000/svg">
<path d="M27.1065 24.3919C28.1552 24.3919 29.0055 23.5787 29.0055 22.5755C29.0055 16.1367 34.482 10.8984 41.2134 10.8984C42.2622 10.8984 43.1124 10.0852 43.1124 9.08203C43.1124 8.07889 42.2622 7.26562 41.2134 7.26562C32.3878 7.26562 25.2075 14.1336 25.2075 22.5755C25.2075 23.5787 26.0578 24.3919 27.1065 24.3919Z" fill="#F5F5F5"/>
<path d="M5.92707 61.4679C6.66855 62.1773 7.87098 62.1774 8.61259 61.4679L23.5426 47.187C24.2842 46.4776 24.2842 45.3276 23.5426 44.6182L22.2004 43.3344L25.9253 39.7708C30.1898 43.239 35.5499 45.151 41.217 45.151C54.2307 45.151 64.8181 35.0235 64.8181 22.5749C64.818 10.1271 54.2306 0 41.2169 0C28.2026 0 17.6146 10.1271 17.6146 22.5749C17.6146 28.009 19.6228 33.133 23.2397 37.2021L19.515 40.7656L18.1716 39.4807C17.4305 38.7717 16.2275 38.7714 15.4861 39.4807L0.556019 53.7616C-0.185086 54.4704 -0.185593 55.6212 0.556019 56.3304L5.92707 61.4679ZM21.4125 22.5749C21.4125 12.1302 30.2968 3.63281 41.2169 3.63281C52.1364 3.63281 61.02 12.1302 61.02 22.5749C61.02 33.0203 52.1364 41.5182 41.2169 41.5182C30.2968 41.5182 21.4125 33.0529 21.4125 22.5749ZM16.8288 43.3339L19.5143 45.9027L7.26989 57.6147L4.58424 55.046L16.8288 43.3339Z" fill="#F5F5F5"/>
</svg>
