<svg width="63" height="63" viewBox="0 0 63 63" fill="none" xmlns="http://www.w3.org/2000/svg">
<g filter="url(#filter0_f)">
<path d="M58.1071 39.3177C57.255 38.6194 56.0544 38.606 55.1874 39.2857C51.3635 42.2855 46.7931 43.8709 41.9701 43.8709C40.6576 43.8709 39.342 43.7496 38.0598 43.5104C37.5484 43.4147 37.059 43.7632 36.9662 44.2882C36.8733 44.8131 37.2124 45.316 37.7236 45.4113C39.1164 45.6712 40.5451 45.8029 41.97 45.8029C47.2094 45.8029 52.1747 44.0802 56.3292 40.8211C56.5086 40.6803 56.7569 40.6832 56.9333 40.8276C57.1096 40.9721 57.1671 41.2202 57.0733 41.4309C55.0249 46.03 51.7591 49.9299 47.6293 52.7087C43.3909 55.5603 38.4606 57.0678 33.3718 57.0678C19.0076 57.0678 7.32143 45.0675 7.32143 30.3171C7.32143 25.0912 8.78935 20.0285 11.5664 15.6765C14.2725 11.4354 18.0702 8.08198 22.5494 5.97838C22.7544 5.88197 22.9954 5.94121 23.1362 6.12234C23.2768 6.30335 23.2797 6.55839 23.1427 6.74239C19.9688 11.0092 18.2912 16.108 18.2912 21.4878C18.2912 26.6977 19.8792 31.6689 22.8837 35.8642C25.8268 39.9737 29.8608 42.9878 34.5497 44.5806C35.0433 44.7478 35.5751 44.4731 35.7384 43.9668C35.9014 43.4603 35.6338 42.9137 35.1407 42.7462C26.1878 39.7053 20.1727 31.1623 20.1727 21.4879C20.1727 16.5356 21.7168 11.8422 24.6379 7.9152C25.3 7.02522 25.287 5.7924 24.6066 4.91709C23.9258 4.04124 22.7573 3.75586 21.7664 4.2217C16.9648 6.47665 12.8934 10.0716 9.99269 14.6175C7.01421 19.285 5.43994 24.7139 5.43994 30.3171C5.43994 46.1328 17.9703 58.9999 33.3718 58.9999C38.828 58.9999 44.1148 57.3833 48.6605 54.3247C53.0873 51.3461 56.5883 47.1653 58.7845 42.2345C59.2379 41.2161 58.9596 40.0167 58.1071 39.3177Z" fill="#6AB9F0"/>
<path d="M31.0114 21.361C33.234 21.361 35.0425 23.2179 35.0425 25.5003C35.0425 26.0338 35.4637 26.4663 35.9832 26.4663C36.5027 26.4663 36.9239 26.0338 36.9239 25.5003C36.9239 23.2179 38.7322 21.361 40.9549 21.361C41.4744 21.361 41.8956 20.9284 41.8956 20.395C41.8956 19.8615 41.4744 19.429 40.9549 19.429C38.7322 19.429 36.9239 17.5719 36.9239 15.2895C36.9239 14.7561 36.5027 14.3235 35.9832 14.3235C35.4637 14.3235 35.0425 14.7561 35.0425 15.2895C35.0425 17.5719 33.234 19.429 31.0114 19.429C30.4919 19.429 30.0707 19.8615 30.0707 20.395C30.0707 20.9284 30.4919 21.361 31.0114 21.361ZM35.9832 18.5722C36.4416 19.3018 37.0476 19.9242 37.7581 20.395C37.0476 20.8657 36.4417 21.488 35.9832 22.2176C35.5248 21.488 34.9186 20.8658 34.2082 20.395C34.9186 19.9243 35.5248 19.3018 35.9832 18.5722Z" fill="#6AB9F0"/>
<path d="M44.3265 33.7827C45.9402 33.7827 47.2531 32.4347 47.2531 30.7777C47.2531 29.1207 45.9402 27.7725 44.3265 27.7725C42.7128 27.7725 41.4 29.1207 41.4 30.7777C41.4002 32.4347 42.7129 33.7827 44.3265 33.7827ZM44.3265 29.7046C44.9027 29.7046 45.3716 30.186 45.3716 30.7778C45.3716 31.3694 44.9028 31.8508 44.3265 31.8508C43.7502 31.8508 43.2815 31.3695 43.2815 30.7778C43.2816 30.186 43.7503 29.7046 44.3265 29.7046Z" fill="#6AB9F0"/>
<path d="M8.34544 51.4404C6.73175 51.4404 5.41895 52.7885 5.41895 54.4456C5.41895 56.1026 6.73175 57.4508 8.34544 57.4508C9.95913 57.4508 11.2719 56.1026 11.2719 54.4456C11.2719 52.7885 9.95913 51.4404 8.34544 51.4404ZM8.34544 55.5187C7.76923 55.5187 7.30044 55.0373 7.30044 54.4455C7.30044 53.8536 7.76923 53.3725 8.34544 53.3725C8.92165 53.3725 9.39043 53.8538 9.39043 54.4456C9.39043 55.0373 8.92175 55.5187 8.34544 55.5187Z" fill="#6AB9F0"/>
<path d="M35.9831 33.2008C36.6345 33.2008 37.1625 32.6586 37.1625 31.9897C37.1625 31.3208 36.6345 30.7786 35.9831 30.7786C35.3317 30.7786 34.8037 31.3208 34.8037 31.9897C34.8037 32.6586 35.3317 33.2008 35.9831 33.2008Z" fill="#6AB9F0"/>
<path d="M5.17938 47.7429C5.83074 47.7429 6.35877 47.2007 6.35877 46.5318C6.35877 45.8629 5.83074 45.3207 5.17938 45.3207C4.52803 45.3207 4 45.8629 4 46.5318C4 47.2007 4.52803 47.7429 5.17938 47.7429Z" fill="#6AB9F0"/>
<path d="M43.5462 14.4806C44.1976 14.4806 44.7256 13.9384 44.7256 13.2695C44.7256 12.6006 44.1976 12.0584 43.5462 12.0584C42.8948 12.0584 42.3668 12.6006 42.3668 13.2695C42.3668 13.9384 42.8948 14.4806 43.5462 14.4806Z" fill="#6AB9F0"/>
</g>
<path d="M58.1071 39.3177C57.255 38.6194 56.0544 38.606 55.1874 39.2857C51.3635 42.2855 46.7931 43.8709 41.9701 43.8709C40.6576 43.8709 39.342 43.7496 38.0598 43.5104C37.5484 43.4147 37.059 43.7632 36.9662 44.2882C36.8733 44.8131 37.2124 45.316 37.7236 45.4113C39.1164 45.6712 40.5451 45.8029 41.97 45.8029C47.2094 45.8029 52.1747 44.0802 56.3292 40.8211C56.5086 40.6803 56.7569 40.6832 56.9333 40.8276C57.1096 40.9721 57.1671 41.2202 57.0733 41.4309C55.0249 46.03 51.7591 49.9299 47.6293 52.7087C43.3909 55.5603 38.4606 57.0678 33.3718 57.0678C19.0076 57.0678 7.32143 45.0675 7.32143 30.3171C7.32143 25.0912 8.78935 20.0285 11.5664 15.6765C14.2725 11.4354 18.0702 8.08198 22.5494 5.97838C22.7544 5.88197 22.9954 5.94121 23.1362 6.12234C23.2768 6.30335 23.2797 6.55839 23.1427 6.74239C19.9688 11.0092 18.2912 16.108 18.2912 21.4878C18.2912 26.6977 19.8792 31.6689 22.8837 35.8642C25.8268 39.9737 29.8608 42.9878 34.5497 44.5806C35.0433 44.7478 35.5751 44.4731 35.7384 43.9668C35.9014 43.4603 35.6338 42.9137 35.1407 42.7462C26.1878 39.7053 20.1727 31.1623 20.1727 21.4879C20.1727 16.5356 21.7168 11.8422 24.6379 7.9152C25.3 7.02522 25.287 5.7924 24.6066 4.91709C23.9258 4.04124 22.7573 3.75586 21.7664 4.2217C16.9648 6.47665 12.8934 10.0716 9.99269 14.6175C7.01421 19.285 5.43994 24.7139 5.43994 30.3171C5.43994 46.1328 17.9703 58.9999 33.3718 58.9999C38.828 58.9999 44.1148 57.3833 48.6605 54.3247C53.0873 51.3461 56.5883 47.1653 58.7845 42.2345C59.2379 41.2161 58.9596 40.0167 58.1071 39.3177Z" fill="#A2D3F6"/>
<path d="M31.0114 21.361C33.234 21.361 35.0425 23.2179 35.0425 25.5003C35.0425 26.0338 35.4637 26.4663 35.9832 26.4663C36.5027 26.4663 36.9239 26.0338 36.9239 25.5003C36.9239 23.2179 38.7322 21.361 40.9549 21.361C41.4744 21.361 41.8956 20.9284 41.8956 20.395C41.8956 19.8615 41.4744 19.429 40.9549 19.429C38.7322 19.429 36.9239 17.5719 36.9239 15.2895C36.9239 14.7561 36.5027 14.3235 35.9832 14.3235C35.4637 14.3235 35.0425 14.7561 35.0425 15.2895C35.0425 17.5719 33.234 19.429 31.0114 19.429C30.4919 19.429 30.0707 19.8615 30.0707 20.395C30.0707 20.9284 30.4919 21.361 31.0114 21.361ZM35.9832 18.5722C36.4416 19.3018 37.0476 19.9242 37.7581 20.395C37.0476 20.8657 36.4417 21.488 35.9832 22.2176C35.5248 21.488 34.9186 20.8658 34.2082 20.395C34.9186 19.9243 35.5248 19.3018 35.9832 18.5722Z" fill="#A2D3F6"/>
<path d="M44.3265 33.7827C45.9402 33.7827 47.2531 32.4347 47.2531 30.7777C47.2531 29.1207 45.9402 27.7725 44.3265 27.7725C42.7128 27.7725 41.4 29.1207 41.4 30.7777C41.4002 32.4347 42.7129 33.7827 44.3265 33.7827ZM44.3265 29.7046C44.9027 29.7046 45.3716 30.186 45.3716 30.7778C45.3716 31.3694 44.9028 31.8508 44.3265 31.8508C43.7502 31.8508 43.2815 31.3695 43.2815 30.7778C43.2816 30.186 43.7503 29.7046 44.3265 29.7046Z" fill="#A2D3F6"/>
<path d="M8.34544 51.4404C6.73175 51.4404 5.41895 52.7885 5.41895 54.4456C5.41895 56.1026 6.73175 57.4508 8.34544 57.4508C9.95913 57.4508 11.2719 56.1026 11.2719 54.4456C11.2719 52.7885 9.95913 51.4404 8.34544 51.4404ZM8.34544 55.5187C7.76923 55.5187 7.30044 55.0373 7.30044 54.4455C7.30044 53.8536 7.76923 53.3725 8.34544 53.3725C8.92165 53.3725 9.39043 53.8538 9.39043 54.4456C9.39043 55.0373 8.92175 55.5187 8.34544 55.5187Z" fill="#A2D3F6"/>
<path d="M35.9831 33.2008C36.6345 33.2008 37.1625 32.6586 37.1625 31.9897C37.1625 31.3208 36.6345 30.7786 35.9831 30.7786C35.3317 30.7786 34.8037 31.3208 34.8037 31.9897C34.8037 32.6586 35.3317 33.2008 35.9831 33.2008Z" fill="#A2D3F6"/>
<path d="M5.17938 47.7429C5.83074 47.7429 6.35877 47.2007 6.35877 46.5318C6.35877 45.8629 5.83074 45.3207 5.17938 45.3207C4.52803 45.3207 4 45.8629 4 46.5318C4 47.2007 4.52803 47.7429 5.17938 47.7429Z" fill="#A2D3F6"/>
<path d="M43.5462 14.4806C44.1976 14.4806 44.7256 13.9384 44.7256 13.2695C44.7256 12.6006 44.1976 12.0584 43.5462 12.0584C42.8948 12.0584 42.3668 12.6006 42.3668 13.2695C42.3668 13.9384 42.8948 14.4806 43.5462 14.4806Z" fill="#A2D3F6"/>
<defs>
<filter id="filter0_f" x="0.5" y="0.5" width="62.0002" height="61.9999" filterUnits="userSpaceOnUse" color-interpolation-filters="sRGB">
<feFlood flood-opacity="0" result="BackgroundImageFix"/>
<feBlend mode="normal" in="SourceGraphic" in2="BackgroundImageFix" result="shape"/>
<feGaussianBlur stdDeviation="1.75" result="effect1_foregroundBlur"/>
</filter>
</defs>
</svg>
