<svg width="60" height="60" viewBox="0 0 60 60" fill="none" xmlns="http://www.w3.org/2000/svg">
<path d="M59.0258 38.5285C58.0963 37.7667 56.7865 37.752 55.8407 38.4936C51.6691 41.766 46.6833 43.4956 41.4218 43.4956C39.99 43.4956 38.5548 43.3633 37.156 43.1024C36.5981 42.9979 36.0642 43.3781 35.9629 43.9509C35.8616 44.5235 36.2315 45.0721 36.7892 45.176C38.3087 45.4596 39.8673 45.6032 41.4217 45.6032C47.1374 45.6032 52.5541 43.7239 57.0862 40.1685C57.2819 40.015 57.5529 40.0181 57.7453 40.1756C57.9376 40.3333 58.0003 40.6039 57.898 40.8338C55.6634 45.851 52.1007 50.1054 47.5955 53.1369C42.9717 56.2477 37.5933 57.8923 32.0419 57.8923C16.3718 57.8923 3.62316 44.801 3.62316 28.7096C3.62316 23.0086 5.22453 17.4857 8.25406 12.738C11.2061 8.11136 15.3491 4.45308 20.2356 2.15824C20.4591 2.05306 20.7221 2.11768 20.8756 2.31528C21.029 2.51275 21.0322 2.79098 20.8828 2.9917C17.4204 7.64637 15.5902 13.2088 15.5902 19.0776C15.5902 24.7612 17.3226 30.1843 20.6002 34.761C23.8108 39.2441 28.2116 42.5322 33.3268 44.2698C33.8653 44.4522 34.4454 44.1526 34.6235 43.6002C34.8014 43.0476 34.5095 42.4514 33.9715 42.2687C24.2047 38.9513 17.6428 29.6316 17.6428 19.0778C17.6428 13.6752 19.3272 8.55516 22.5139 4.27113C23.2361 3.30025 23.222 1.95535 22.4797 1.00047C21.7371 0.0449839 20.4623 -0.26633 19.3814 0.241857C14.1432 2.70181 9.70168 6.62362 6.53726 11.5827C3.288 16.6746 1.57062 22.597 1.57062 28.7096C1.57062 45.9632 15.2401 60 32.0419 60C37.994 60 43.7614 58.2364 48.7205 54.8998C53.5496 51.6503 57.3689 47.0895 59.7648 41.7104C60.2595 40.5995 59.9558 39.291 59.0258 38.5285Z" fill="#6AB9F0"/>
<path d="M29.4672 18.9392C31.8919 18.9392 33.8648 20.965 33.8648 23.4549C33.8648 24.0368 34.3243 24.5087 34.891 24.5087C35.4577 24.5087 35.9172 24.0368 35.9172 23.4549C35.9172 20.965 37.89 18.9392 40.3147 18.9392C40.8814 18.9392 41.3409 18.4674 41.3409 17.8854C41.3409 17.3035 40.8814 16.8316 40.3147 16.8316C37.89 16.8316 35.9172 14.8057 35.9172 12.3158C35.9172 11.7339 35.4577 11.262 34.891 11.262C34.3243 11.262 33.8648 11.7339 33.8648 12.3158C33.8648 14.8057 31.8919 16.8316 29.4672 16.8316C28.9005 16.8316 28.441 17.3035 28.441 17.8854C28.441 18.4674 28.9005 18.9392 29.4672 18.9392ZM34.891 15.897C35.391 16.6929 36.0522 17.3718 36.8273 17.8854C36.0522 18.3989 35.3912 19.0778 34.891 19.8738C34.391 19.0778 33.7297 18.399 32.9546 17.8854C33.7297 17.3719 34.391 16.6929 34.891 15.897Z" fill="#6AB9F0"/>
<path d="M43.9928 32.4904C45.7532 32.4904 47.1854 31.0198 47.1854 29.2122C47.1854 27.4045 45.7532 25.9337 43.9928 25.9337C42.2324 25.9337 40.8002 27.4045 40.8002 29.2122C40.8005 31.0198 42.2325 32.4904 43.9928 32.4904ZM43.9928 28.0415C44.6214 28.0415 45.1329 28.5667 45.1329 29.2123C45.1329 29.8577 44.6215 30.3828 43.9928 30.3828C43.3641 30.3828 42.8528 29.8578 42.8528 29.2123C42.8529 28.5667 43.3642 28.0415 43.9928 28.0415Z" fill="#6AB9F0"/>
<path d="M4.7403 51.7532C2.97991 51.7532 1.54776 53.2239 1.54776 55.0316C1.54776 56.8393 2.97991 58.3101 4.7403 58.3101C6.50069 58.3101 7.93284 56.8393 7.93284 55.0316C7.93284 53.2239 6.50069 51.7532 4.7403 51.7532ZM4.7403 56.2023C4.11171 56.2023 3.6003 55.6771 3.6003 55.0315C3.6003 54.3859 4.11171 53.861 4.7403 53.861C5.3689 53.861 5.8803 54.386 5.8803 55.0316C5.8803 55.6771 5.36901 56.2023 4.7403 56.2023Z" fill="#6AB9F0"/>
<path d="M34.891 31.8555C35.6016 31.8555 36.1776 31.2639 36.1776 30.5343C36.1776 29.8046 35.6016 29.2131 34.891 29.2131C34.1804 29.2131 33.6044 29.8046 33.6044 30.5343C33.6044 31.2639 34.1804 31.8555 34.891 31.8555Z" fill="#6AB9F0"/>
<path d="M1.2866 47.7196C1.99717 47.7196 2.57321 47.1281 2.57321 46.3984C2.57321 45.6687 1.99717 45.0772 1.2866 45.0772C0.576032 45.0772 0 45.6687 0 46.3984C0 47.1281 0.576032 47.7196 1.2866 47.7196Z" fill="#6AB9F0"/>
<path d="M43.1418 11.4335C43.8524 11.4335 44.4284 10.842 44.4284 10.1123C44.4284 9.38266 43.8524 8.79114 43.1418 8.79114C42.4312 8.79114 41.8552 9.38266 41.8552 10.1123C41.8552 10.842 42.4312 11.4335 43.1418 11.4335Z" fill="#6AB9F0"/>
</svg>
