<svg width="23" height="23" viewBox="0 0 23 23" fill="none" xmlns="http://www.w3.org/2000/svg">
<path d="M23 1.91667V23H0V1.91667H2.875V2.875C2.875 3.93204 3.73462 4.79167 4.79167 4.79167C5.84871 4.79167 6.70833 3.93204 6.70833 2.875V1.91667H16.2917V2.875C16.2917 3.93204 17.1513 4.79167 18.2083 4.79167C19.2654 4.79167 20.125 3.93204 20.125 2.875V1.91667H23ZM21.0833 7.66667H1.91667V21.0833H21.0833V7.66667ZM19.1667 0.958333C19.1667 0.429333 18.7383 0 18.2083 0C17.6784 0 17.25 0.429333 17.25 0.958333V2.875C17.25 3.404 17.6784 3.83333 18.2083 3.83333C18.7383 3.83333 19.1667 3.404 19.1667 2.875V0.958333ZM5.75 2.875C5.75 3.404 5.32162 3.83333 4.79167 3.83333C4.26171 3.83333 3.83333 3.404 3.83333 2.875V0.958333C3.83333 0.429333 4.26171 0 4.79167 0C5.32162 0 5.75 0.429333 5.75 0.958333V2.875ZM6.70833 14.1153L7.52771 13.3572C8.48604 13.8211 9.09458 14.1737 10.1727 14.9423C12.1977 12.6433 13.5374 11.477 16.0243 9.92929L16.2917 10.5426C14.2399 12.3338 12.7372 14.3271 10.5733 18.2083C9.23833 16.6367 8.34804 15.6342 6.70833 14.1153V14.1153Z" fill="#6AB9F0"/>
</svg>
