<svg width="64" height="64" viewBox="0 0 64 64" fill="none" xmlns="http://www.w3.org/2000/svg">
<path d="M32.0002 14.0089C22.0798 14.0089 14.0091 22.0796 14.0091 32C14.0091 33.2357 14.1351 34.4707 14.3841 35.6705C14.5241 36.3461 15.1858 36.7806 15.8611 36.6401C16.5367 36.5001 16.9709 35.8387 16.8307 35.1631C16.6166 34.1299 16.5078 33.0656 16.5078 32C16.5078 23.4575 23.4576 16.5076 32.0002 16.5076C40.5428 16.5076 47.4924 23.4575 47.4924 32C47.4924 40.5425 40.5427 47.4922 32.0002 47.4922C27.3783 47.4922 23.0322 45.4507 20.0759 41.8912C19.6352 41.3604 18.8474 41.2875 18.3166 41.7284C17.7857 42.1691 17.7127 42.9569 18.1537 43.4877C21.5861 47.6207 26.6329 49.991 32.0002 49.991C41.9206 49.991 49.9913 41.9202 49.9913 31.9999C49.9913 22.0795 41.9206 14.0089 32.0002 14.0089Z" fill="#6AB9F0"/>
<path d="M32.0001 0C31.3101 0 30.7508 0.559375 30.7508 1.24937V9.39125C30.7508 10.0812 31.3101 10.6406 32.0001 10.6406C32.6901 10.6406 33.2495 10.0812 33.2495 9.39125V1.24937C33.2495 0.559375 32.6901 0 32.0001 0Z" fill="#6AB9F0"/>
<path d="M32.0001 53.3594C31.3101 53.3594 30.7508 53.9187 30.7508 54.6087V62.7506C30.7508 63.4406 31.3101 64 32.0001 64C32.6901 64 33.2495 63.4406 33.2495 62.7506V54.6087C33.2495 53.9187 32.6901 53.3594 32.0001 53.3594Z" fill="#6AB9F0"/>
<path d="M62.7506 30.7506H54.6087C53.9187 30.7506 53.3594 31.31 53.3594 32C53.3594 32.69 53.9187 33.2494 54.6087 33.2494H62.7506C63.4406 33.2494 64 32.69 64 32C64 31.31 63.4406 30.7506 62.7506 30.7506Z" fill="#6AB9F0"/>
<path d="M9.39125 30.7506H1.24937C0.559375 30.7506 0 31.31 0 32C0 32.69 0.559375 33.2494 1.24937 33.2494H9.39125C10.0812 33.2494 10.6406 32.69 10.6406 32C10.6406 31.31 10.0812 30.7506 9.39125 30.7506Z" fill="#6AB9F0"/>
<path d="M54.6272 9.37234C54.1392 8.88459 53.3481 8.88459 52.8602 9.37234L47.1031 15.1295C46.6152 15.6175 46.6152 16.4086 47.1031 16.8965C47.3469 17.1404 47.6668 17.2625 47.9866 17.2625C48.3063 17.2625 48.6261 17.1404 48.8701 16.8965L54.6272 11.1393C55.1151 10.6513 55.1151 9.86022 54.6272 9.37234Z" fill="#6AB9F0"/>
<path d="M16.8966 47.1032C16.4086 46.6155 15.6175 46.6155 15.1296 47.1032L9.37247 52.8604C8.88459 53.3484 8.88459 54.1395 9.37247 54.6274C9.61634 54.8713 9.93622 54.9934 10.256 54.9934C10.5757 54.9934 10.8955 54.8713 11.1395 54.6274L16.8966 48.8703C17.3845 48.3823 17.3845 47.5911 16.8966 47.1032Z" fill="#6AB9F0"/>
<path d="M54.6272 52.8604L48.8701 47.1032C48.3821 46.6155 47.5909 46.6155 47.1031 47.1032C46.6152 47.5912 46.6152 48.3824 47.1031 48.8703L52.8602 54.6274C53.1041 54.8713 53.424 54.9934 53.7437 54.9934C54.0635 54.9934 54.3832 54.8713 54.6272 54.6274C55.1151 54.1394 55.1151 53.3483 54.6272 52.8604Z" fill="#6AB9F0"/>
<path d="M16.8966 15.1295L11.1395 9.37234C10.6515 8.88459 9.86035 8.88459 9.37247 9.37234C8.88459 9.86035 8.88459 10.6515 9.37247 11.1393L15.1296 16.8965C15.3735 17.1404 15.6934 17.2625 16.0131 17.2625C16.3329 17.2625 16.6526 17.1404 16.8966 16.8965C17.3845 16.4085 17.3845 15.6174 16.8966 15.1295Z" fill="#6AB9F0"/>
<path d="M17.8881 38.5672C17.6557 38.3349 17.3333 38.2011 17.0047 38.2011C16.676 38.2011 16.3538 38.3347 16.1214 38.5672C15.889 38.7996 15.7553 39.1207 15.7553 39.4505C15.7553 39.7791 15.8889 40.1014 16.1214 40.3339C16.3538 40.5662 16.6762 40.7 17.0047 40.7C17.3332 40.7 17.6555 40.5664 17.8881 40.3339C18.1206 40.1014 18.2542 39.7791 18.2542 39.4505C18.2542 39.122 18.1204 38.7996 17.8881 38.5672Z" fill="#6AB9F0"/>
<path d="M44.1892 31.1507C44.0017 28.4239 42.8834 25.8063 41.0401 23.7803C40.5759 23.27 39.7858 23.2326 39.2753 23.6969C38.765 24.1612 38.7275 24.9514 39.1919 25.4618C40.6578 27.0733 41.5473 29.1544 41.6963 31.322C41.7415 31.9812 42.2905 32.4857 42.9414 32.4857C42.9701 32.4857 42.9992 32.4847 43.0284 32.4828C43.7167 32.4355 44.2365 31.8392 44.1892 31.1507Z" fill="#6AB9F0"/>
<path d="M43.8515 35.0989C43.6191 34.8665 43.298 34.7327 42.9683 34.7327C42.6396 34.7327 42.3174 34.8665 42.0849 35.0989C41.8525 35.3312 41.7188 35.6536 41.7188 35.9822C41.7188 36.3109 41.8524 36.6331 42.0849 36.8656C42.3172 37.098 42.6396 37.2317 42.9683 37.2317C43.2981 37.2317 43.6191 37.098 43.8515 36.8656C44.0851 36.6332 44.2176 36.3109 44.2176 35.9822C44.2176 35.6536 44.0851 35.3312 43.8515 35.0989Z" fill="#6AB9F0"/>
</svg>
