<svg width="72" height="72" viewBox="0 0 72 72" fill="none" xmlns="http://www.w3.org/2000/svg">
<g filter="url(#filter0_f)">
<path d="M36.0002 18.0089C26.0798 18.0089 18.009 26.0796 18.009 36C18.009 37.2357 18.135 38.4707 18.384 39.6705C18.524 40.3461 19.1858 40.7806 19.861 40.6401C20.5367 40.5001 20.9709 39.8387 20.8307 39.1631C20.6165 38.1299 20.5078 37.0656 20.5078 36C20.5078 27.4575 27.4575 20.5076 36.0002 20.5076C44.5428 20.5076 51.4924 27.4575 51.4924 36C51.4924 44.5425 44.5427 51.4922 36.0002 51.4922C31.3783 51.4922 27.0322 49.4507 24.0759 45.8912C23.6352 45.3604 22.8474 45.2875 22.3165 45.7284C21.7857 46.1691 21.7127 46.9569 22.1537 47.4877C25.586 51.6207 30.6329 53.991 36.0002 53.991C45.9205 53.991 53.9913 45.9202 53.9913 35.9999C53.9913 26.0795 45.9205 18.0089 36.0002 18.0089Z" fill="#6AB9F0"/>
<path d="M36.0001 4C35.3101 4 34.7507 4.55937 34.7507 5.24937V13.3912C34.7507 14.0812 35.3101 14.6406 36.0001 14.6406C36.6901 14.6406 37.2495 14.0812 37.2495 13.3912V5.24937C37.2495 4.55937 36.6901 4 36.0001 4Z" fill="#6AB9F0"/>
<path d="M36.0001 57.3594C35.3101 57.3594 34.7507 57.9187 34.7507 58.6087V66.7506C34.7507 67.4406 35.3101 68 36.0001 68C36.6901 68 37.2495 67.4406 37.2495 66.7506V58.6087C37.2495 57.9187 36.6901 57.3594 36.0001 57.3594Z" fill="#6AB9F0"/>
<path d="M66.7506 34.7506H58.6087C57.9187 34.7506 57.3594 35.31 57.3594 36C57.3594 36.69 57.9187 37.2494 58.6087 37.2494H66.7506C67.4406 37.2494 68 36.69 68 36C68 35.31 67.4406 34.7506 66.7506 34.7506Z" fill="#6AB9F0"/>
<path d="M13.3912 34.7506H5.24937C4.55937 34.7506 4 35.31 4 36C4 36.69 4.55937 37.2494 5.24937 37.2494H13.3912C14.0812 37.2494 14.6406 36.69 14.6406 36C14.6406 35.31 14.0812 34.7506 13.3912 34.7506Z" fill="#6AB9F0"/>
<path d="M58.6272 13.3723C58.1392 12.8846 57.3481 12.8846 56.8602 13.3723L51.1031 19.1295C50.6152 19.6175 50.6152 20.4086 51.1031 20.8965C51.347 21.1404 51.6668 21.2625 51.9866 21.2625C52.3063 21.2625 52.6261 21.1404 52.8701 20.8965L58.6272 15.1393C59.1151 14.6513 59.1151 13.8602 58.6272 13.3723Z" fill="#6AB9F0"/>
<path d="M20.8966 51.1032C20.4086 50.6155 19.6175 50.6155 19.1296 51.1032L13.3725 56.8604C12.8846 57.3484 12.8846 58.1395 13.3725 58.6274C13.6164 58.8713 13.9363 58.9934 14.256 58.9934C14.5758 58.9934 14.8955 58.8713 15.1395 58.6274L20.8966 52.8702C21.3845 52.3822 21.3845 51.5911 20.8966 51.1032Z" fill="#6AB9F0"/>
<path d="M58.6272 56.8604L52.8701 51.1032C52.3821 50.6155 51.591 50.6155 51.1031 51.1032C50.6152 51.5912 50.6152 52.3823 51.1031 52.8702L56.8602 58.6274C57.1041 58.8713 57.424 58.9934 57.7437 58.9934C58.0635 58.9934 58.3832 58.8713 58.6272 58.6274C59.1151 58.1394 59.1151 57.3482 58.6272 56.8604Z" fill="#6AB9F0"/>
<path d="M20.8966 19.1295L15.1395 13.3723C14.6515 12.8846 13.8604 12.8846 13.3725 13.3723C12.8846 13.8603 12.8846 14.6515 13.3725 15.1393L19.1296 20.8965C19.3735 21.1404 19.6934 21.2625 20.0131 21.2625C20.3329 21.2625 20.6526 21.1404 20.8966 20.8965C21.3845 20.4085 21.3845 19.6174 20.8966 19.1295Z" fill="#6AB9F0"/>
<path d="M21.888 42.5672C21.6556 42.3349 21.3333 42.2011 21.0046 42.2011C20.676 42.2011 20.3538 42.3347 20.1214 42.5672C19.889 42.7996 19.7552 43.1207 19.7552 43.4505C19.7552 43.7791 19.8889 44.1014 20.1214 44.3339C20.3538 44.5662 20.6761 44.7 21.0046 44.7C21.3331 44.7 21.6555 44.5664 21.888 44.3339C22.1205 44.1014 22.2541 43.7791 22.2541 43.4505C22.2541 43.122 22.1204 42.7996 21.888 42.5672Z" fill="#6AB9F0"/>
<path d="M48.1892 35.1507C48.0017 32.4239 46.8834 29.8063 45.0401 27.7803C44.5759 27.27 43.7858 27.2326 43.2753 27.6969C42.765 28.1612 42.7275 28.9514 43.1919 29.4618C44.6578 31.0733 45.5473 33.1544 45.6963 35.322C45.7415 35.9812 46.2905 36.4857 46.9414 36.4857C46.9701 36.4857 46.9992 36.4847 47.0284 36.4828C47.7167 36.4355 48.2365 35.8392 48.1892 35.1507Z" fill="#6AB9F0"/>
<path d="M47.8515 39.0989C47.6191 38.8665 47.298 38.7327 46.9683 38.7327C46.6396 38.7327 46.3174 38.8665 46.0849 39.0989C45.8525 39.3312 45.7188 39.6536 45.7188 39.9822C45.7188 40.3109 45.8524 40.6331 46.0849 40.8656C46.3172 41.098 46.6396 41.2317 46.9683 41.2317C47.2981 41.2317 47.6191 41.098 47.8515 40.8656C48.0851 40.6332 48.2176 40.3109 48.2176 39.9822C48.2176 39.6536 48.0851 39.3312 47.8515 39.0989Z" fill="#6AB9F0"/>
</g>
<path d="M36.0002 18.0089C26.0798 18.0089 18.009 26.0796 18.009 36C18.009 37.2357 18.135 38.4707 18.384 39.6705C18.524 40.3461 19.1858 40.7806 19.861 40.6401C20.5367 40.5001 20.9709 39.8387 20.8307 39.1631C20.6165 38.1299 20.5078 37.0656 20.5078 36C20.5078 27.4575 27.4575 20.5076 36.0002 20.5076C44.5428 20.5076 51.4924 27.4575 51.4924 36C51.4924 44.5425 44.5427 51.4922 36.0002 51.4922C31.3783 51.4922 27.0322 49.4507 24.0759 45.8912C23.6352 45.3604 22.8474 45.2875 22.3165 45.7284C21.7857 46.1691 21.7127 46.9569 22.1537 47.4877C25.586 51.6207 30.6329 53.991 36.0002 53.991C45.9205 53.991 53.9913 45.9202 53.9913 35.9999C53.9913 26.0795 45.9205 18.0089 36.0002 18.0089Z" fill="#A2D3F6"/>
<path d="M36.0001 4C35.3101 4 34.7507 4.55937 34.7507 5.24937V13.3912C34.7507 14.0812 35.3101 14.6406 36.0001 14.6406C36.6901 14.6406 37.2495 14.0812 37.2495 13.3912V5.24937C37.2495 4.55937 36.6901 4 36.0001 4Z" fill="#A2D3F6"/>
<path d="M36.0001 57.3594C35.3101 57.3594 34.7507 57.9187 34.7507 58.6087V66.7506C34.7507 67.4406 35.3101 68 36.0001 68C36.6901 68 37.2495 67.4406 37.2495 66.7506V58.6087C37.2495 57.9187 36.6901 57.3594 36.0001 57.3594Z" fill="#A2D3F6"/>
<path d="M66.7506 34.7506H58.6087C57.9187 34.7506 57.3594 35.31 57.3594 36C57.3594 36.69 57.9187 37.2494 58.6087 37.2494H66.7506C67.4406 37.2494 68 36.69 68 36C68 35.31 67.4406 34.7506 66.7506 34.7506Z" fill="#A2D3F6"/>
<path d="M13.3912 34.7506H5.24937C4.55937 34.7506 4 35.31 4 36C4 36.69 4.55937 37.2494 5.24937 37.2494H13.3912C14.0812 37.2494 14.6406 36.69 14.6406 36C14.6406 35.31 14.0812 34.7506 13.3912 34.7506Z" fill="#A2D3F6"/>
<path d="M58.6272 13.3723C58.1392 12.8846 57.3481 12.8846 56.8602 13.3723L51.1031 19.1295C50.6152 19.6175 50.6152 20.4086 51.1031 20.8965C51.347 21.1404 51.6668 21.2625 51.9866 21.2625C52.3063 21.2625 52.6261 21.1404 52.8701 20.8965L58.6272 15.1393C59.1151 14.6513 59.1151 13.8602 58.6272 13.3723Z" fill="#A2D3F6"/>
<path d="M20.8966 51.1032C20.4086 50.6155 19.6175 50.6155 19.1296 51.1032L13.3725 56.8604C12.8846 57.3484 12.8846 58.1395 13.3725 58.6274C13.6164 58.8713 13.9363 58.9934 14.256 58.9934C14.5758 58.9934 14.8955 58.8713 15.1395 58.6274L20.8966 52.8702C21.3845 52.3822 21.3845 51.5911 20.8966 51.1032Z" fill="#A2D3F6"/>
<path d="M58.6272 56.8604L52.8701 51.1032C52.3821 50.6155 51.591 50.6155 51.1031 51.1032C50.6152 51.5912 50.6152 52.3823 51.1031 52.8702L56.8602 58.6274C57.1041 58.8713 57.424 58.9934 57.7437 58.9934C58.0635 58.9934 58.3832 58.8713 58.6272 58.6274C59.1151 58.1394 59.1151 57.3482 58.6272 56.8604Z" fill="#A2D3F6"/>
<path d="M20.8966 19.1295L15.1395 13.3723C14.6515 12.8846 13.8604 12.8846 13.3725 13.3723C12.8846 13.8603 12.8846 14.6515 13.3725 15.1393L19.1296 20.8965C19.3735 21.1404 19.6934 21.2625 20.0131 21.2625C20.3329 21.2625 20.6526 21.1404 20.8966 20.8965C21.3845 20.4085 21.3845 19.6174 20.8966 19.1295Z" fill="#A2D3F6"/>
<path d="M21.888 42.5672C21.6556 42.3349 21.3333 42.2011 21.0046 42.2011C20.676 42.2011 20.3538 42.3347 20.1214 42.5672C19.889 42.7996 19.7552 43.1207 19.7552 43.4505C19.7552 43.7791 19.8889 44.1014 20.1214 44.3339C20.3538 44.5662 20.6761 44.7 21.0046 44.7C21.3331 44.7 21.6555 44.5664 21.888 44.3339C22.1205 44.1014 22.2541 43.7791 22.2541 43.4505C22.2541 43.122 22.1204 42.7996 21.888 42.5672Z" fill="#A2D3F6"/>
<path d="M48.1892 35.1507C48.0017 32.4239 46.8834 29.8063 45.0401 27.7803C44.5759 27.27 43.7858 27.2326 43.2753 27.6969C42.765 28.1612 42.7275 28.9514 43.1919 29.4618C44.6578 31.0733 45.5473 33.1544 45.6963 35.322C45.7415 35.9812 46.2905 36.4857 46.9414 36.4857C46.9701 36.4857 46.9992 36.4847 47.0284 36.4828C47.7167 36.4355 48.2365 35.8392 48.1892 35.1507Z" fill="#A2D3F6"/>
<path d="M47.8515 39.0989C47.6191 38.8665 47.298 38.7327 46.9683 38.7327C46.6396 38.7327 46.3174 38.8665 46.0849 39.0989C45.8525 39.3312 45.7188 39.6536 45.7188 39.9822C45.7188 40.3109 45.8524 40.6331 46.0849 40.8656C46.3172 41.098 46.6396 41.2317 46.9683 41.2317C47.2981 41.2317 47.6191 41.098 47.8515 40.8656C48.0851 40.6332 48.2176 40.3109 48.2176 39.9822C48.2176 39.6536 48.0851 39.3312 47.8515 39.0989Z" fill="#A2D3F6"/>
<defs>
<filter id="filter0_f" x="0.5" y="0.5" width="71" height="71" filterUnits="userSpaceOnUse" color-interpolation-filters="sRGB">
<feFlood flood-opacity="0" result="BackgroundImageFix"/>
<feBlend mode="normal" in="SourceGraphic" in2="BackgroundImageFix" result="shape"/>
<feGaussianBlur stdDeviation="1.75" result="effect1_foregroundBlur"/>
</filter>
</defs>
</svg>
