<svg width="28" height="23" viewBox="0 0 28 23" fill="none" xmlns="http://www.w3.org/2000/svg">
<path d="M12.8333 5.74885C15.6275 6.5895 17.815 8.7469 18.6655 11.5C19.5207 8.74575 21.7082 6.59065 24.5 5.75C21.7082 4.90935 19.5207 2.75425 18.6655 0C17.815 2.7531 15.6275 4.9082 12.8333 5.74885ZM21 13.7988C22.6765 14.3025 23.989 15.5974 24.4988 17.25C25.0122 15.5974 26.3247 14.3037 28 13.8C26.3247 13.2951 25.0122 12.0025 24.4988 10.35C23.989 12.0014 22.6765 13.2951 21 13.7988V13.7988ZM14 20.125C15.3977 20.5447 16.4908 21.6234 16.9155 23C17.3425 21.6223 18.4368 20.5447 19.8333 20.125C18.4368 19.7041 17.3437 18.6277 16.9155 17.25C16.4908 18.6265 15.3977 19.7041 14 20.125ZM7 10.6122C7.609 11.3689 8.30433 12.0532 9.07083 12.6535C8.30433 13.2538 7.61017 13.938 7.00233 14.6936C6.39333 13.9369 5.698 13.2526 4.93033 12.6512C5.698 12.052 6.391 11.3677 7 10.6122V10.6122ZM6.99883 5.75C5.978 9.05395 3.3495 11.6438 0 12.6512C3.35533 13.6632 5.978 16.2483 7.00467 19.5557C8.0255 16.2506 10.654 13.6632 14 12.6512C10.654 11.6461 8.0255 9.0551 6.99883 5.75V5.75Z" fill="#6AB9F0"/>
</svg>
